%TF.GenerationSoftware,KiCad,Pcbnew,(5.99.0-3294-g9c46e491e)*%
%TF.CreationDate,2020-11-09T01:34:01-05:00*%
%TF.ProjectId,Game_Controller,47616d65-5f43-46f6-9e74-726f6c6c6572,rev?*%
%TF.SameCoordinates,Original*%
%TF.FileFunction,Copper,L2,Bot*%
%TF.FilePolarity,Positive*%
%FSLAX46Y46*%
G04 Gerber Fmt 4.6, Leading zero omitted, Abs format (unit mm)*
G04 Created by KiCad (PCBNEW (5.99.0-3294-g9c46e491e)) date 2020-11-09 01:34:01*
%MOMM*%
%LPD*%
G01*
G04 APERTURE LIST*
%TA.AperFunction,ComponentPad*%
%ADD10C,6.400000*%
%TD*%
%TA.AperFunction,ComponentPad*%
%ADD11O,3.581400X1.790700*%
%TD*%
%TA.AperFunction,ComponentPad*%
%ADD12C,1.778000*%
%TD*%
%TA.AperFunction,ComponentPad*%
%ADD13O,1.778000X3.556000*%
%TD*%
%TA.AperFunction,ComponentPad*%
%ADD14C,2.540000*%
%TD*%
%TA.AperFunction,ComponentPad*%
%ADD15C,1.600000*%
%TD*%
%TA.AperFunction,ComponentPad*%
%ADD16R,1.600000X1.600000*%
%TD*%
%TA.AperFunction,ViaPad*%
%ADD17C,2.032000*%
%TD*%
%TA.AperFunction,ViaPad*%
%ADD18C,0.800000*%
%TD*%
%TA.AperFunction,Conductor*%
%ADD19C,0.762000*%
%TD*%
%TA.AperFunction,Conductor*%
%ADD20C,0.203200*%
%TD*%
G04 APERTURE END LIST*
D10*
%TO.P,REF\u002A\u002A,3*%
%TO.N,N/C*%
X219556000Y-132520000D03*
%TD*%
%TO.P,REF\u002A\u002A,2*%
%TO.N,N/C*%
X219556000Y-53780000D03*
%TD*%
%TO.P,REF\u002A\u002A,4*%
%TO.N,N/C*%
X92656000Y-132520000D03*
%TD*%
%TO.P,REF\u002A\u002A,1*%
%TO.N,N/C*%
X92656000Y-53780000D03*
%TD*%
D11*
%TO.P,SW5,1,S*%
%TO.N,Net-(SW5-Pad1)*%
X139647600Y-83870800D03*
%TO.P,SW5,2,S1*%
%TO.N,Net-(SW5-Pad2)*%
X152144400Y-83870800D03*
%TO.P,SW5,3,P*%
%TO.N,GND*%
X139647600Y-88849200D03*
%TO.P,SW5,4,P1*%
%TO.N,Net-(SW5-Pad4)*%
X152144400Y-88849200D03*
%TD*%
D12*
%TO.P,U2,1,CS*%
%TO.N,N/C*%
X83285000Y-125730000D03*
%TO.P,U2,2,SDO*%
X85825000Y-125730000D03*
%TO.P,U2,3,A1*%
X88365000Y-125730000D03*
%TO.P,U2,4,A2*%
X90905000Y-125730000D03*
%TO.P,U2,5,A3*%
X93445000Y-125730000D03*
%TO.P,U2,6,I2*%
X95985000Y-125730000D03*
%TO.P,U2,7,Vin*%
%TO.N,+3V3*%
X95985000Y-113030000D03*
%TO.P,U2,8,3V*%
%TO.N,N/C*%
X93445000Y-113030000D03*
%TO.P,U2,9,GND*%
%TO.N,GND*%
X90905000Y-113030000D03*
%TO.P,U2,10,SCL*%
%TO.N,/SCL*%
X88365000Y-113030000D03*
%TO.P,U2,11,SDA*%
%TO.N,/SDA*%
X85825000Y-113030000D03*
%TO.P,U2,12,INT*%
%TO.N,Net-(U1-Pad14)*%
X83285000Y-113030000D03*
%TD*%
%TO.P,JOY1,1,XVdd*%
%TO.N,+3V3*%
X137006000Y-99060000D03*
%TO.P,JOY1,2,XOut*%
%TO.N,Net-(JOY1-Pad2)*%
X134466000Y-99060000D03*
%TO.P,JOY1,3,XGnd*%
%TO.N,GND*%
X131926000Y-99060000D03*
%TO.P,JOY1,4,YVdd*%
%TO.N,+3V3*%
X124306000Y-106680000D03*
%TO.P,JOY1,5,Yout*%
%TO.N,Net-(JOY1-Pad5)*%
X124306000Y-109220000D03*
%TO.P,JOY1,6,YGnd*%
%TO.N,GND*%
X124306000Y-111760000D03*
D13*
%TO.P,JOY1,7,Sel*%
%TO.N,Net-(JOY1-Pad7)*%
X146967000Y-106045000D03*
%TO.P,JOY1,8,SelGnd*%
%TO.N,GND*%
X142467000Y-106045000D03*
%TO.P,JOY1,9*%
%TO.N,N/C*%
X142467000Y-112395000D03*
%TO.P,JOY1,10*%
X146967000Y-112395000D03*
D14*
%TO.P,JOY1,MOUNT1*%
X141133500Y-101600000D03*
%TO.P,JOY1,MOUNT2*%
X127798500Y-101600000D03*
%TO.P,JOY1,MOUNT3*%
X127798500Y-116840000D03*
%TO.P,JOY1,MOUNT4*%
X141133500Y-116840000D03*
%TD*%
D15*
%TO.P,C3,1*%
%TO.N,+3V3*%
X161136000Y-100330000D03*
%TO.P,C3,2*%
%TO.N,GND*%
X161136000Y-97830000D03*
%TD*%
D11*
%TO.P,SW3,1,S*%
%TO.N,Net-(SW3-Pad1)*%
X220927600Y-86410800D03*
%TO.P,SW3,2,S1*%
%TO.N,Net-(SW3-Pad2)*%
X233424400Y-86410800D03*
%TO.P,SW3,3,P*%
%TO.N,GND*%
X220927600Y-91389200D03*
%TO.P,SW3,4,P1*%
%TO.N,Net-(SW3-Pad4)*%
X233424400Y-91389200D03*
%TD*%
%TO.P,SW2,1,S*%
%TO.N,Net-(SW2-Pad1)*%
X191971600Y-86410800D03*
%TO.P,SW2,2,S1*%
%TO.N,Net-(SW2-Pad2)*%
X204468400Y-86410800D03*
%TO.P,SW2,3,P*%
%TO.N,GND*%
X191971600Y-91389200D03*
%TO.P,SW2,4,P1*%
%TO.N,Net-(SW2-Pad4)*%
X204468400Y-91389200D03*
%TD*%
%TO.P,SW6,1,S*%
%TO.N,Net-(SW6-Pad1)*%
X159967600Y-83870800D03*
%TO.P,SW6,2,S1*%
%TO.N,Net-(SW6-Pad2)*%
X172464400Y-83870800D03*
%TO.P,SW6,3,P*%
%TO.N,GND*%
X159967600Y-88849200D03*
%TO.P,SW6,4,P1*%
%TO.N,Net-(SW6-Pad4)*%
X172464400Y-88849200D03*
%TD*%
D15*
%TO.P,C4,1*%
%TO.N,+3V3*%
X103986000Y-111760000D03*
%TO.P,C4,2*%
%TO.N,GND*%
X103986000Y-109260000D03*
%TD*%
%TO.P,C5,1*%
%TO.N,+3V3*%
X176376000Y-68580000D03*
%TO.P,C5,2*%
%TO.N,GND*%
X176376000Y-66080000D03*
%TD*%
D16*
%TO.P,C1,1*%
%TO.N,+3V3*%
X109066000Y-63500000D03*
D15*
%TO.P,C1,2*%
%TO.N,GND*%
X109066000Y-66000000D03*
%TD*%
D12*
%TO.P,JOY2,1,XVdd*%
%TO.N,+3V3*%
X180186000Y-99060000D03*
%TO.P,JOY2,2,XOut*%
%TO.N,Net-(JOY2-Pad2)*%
X177646000Y-99060000D03*
%TO.P,JOY2,3,XGnd*%
%TO.N,GND*%
X175106000Y-99060000D03*
%TO.P,JOY2,4,YVdd*%
%TO.N,+3V3*%
X167486000Y-106680000D03*
%TO.P,JOY2,5,Yout*%
%TO.N,Net-(JOY2-Pad5)*%
X167486000Y-109220000D03*
%TO.P,JOY2,6,YGnd*%
%TO.N,GND*%
X167486000Y-111760000D03*
D13*
%TO.P,JOY2,7,Sel*%
%TO.N,Net-(JOY2-Pad7)*%
X190147000Y-106045000D03*
%TO.P,JOY2,8,SelGnd*%
%TO.N,GND*%
X185647000Y-106045000D03*
%TO.P,JOY2,9*%
%TO.N,N/C*%
X185647000Y-112395000D03*
%TO.P,JOY2,10*%
X190147000Y-112395000D03*
D14*
%TO.P,JOY2,MOUNT1*%
X184313500Y-101600000D03*
%TO.P,JOY2,MOUNT2*%
X170978500Y-101600000D03*
%TO.P,JOY2,MOUNT3*%
X170978500Y-116840000D03*
%TO.P,JOY2,MOUNT4*%
X184313500Y-116840000D03*
%TD*%
D12*
%TO.P,OLED1,1,SDA*%
%TO.N,/SDA*%
X148817000Y-74676000D03*
%TO.P,OLED1,2,SCL*%
%TO.N,/SCL*%
X151357000Y-74676000D03*
%TO.P,OLED1,3,RST*%
%TO.N,Net-(OLED1-Pad3)*%
X153897000Y-74676000D03*
%TO.P,OLED1,4,GND*%
%TO.N,GND*%
X156437000Y-74676000D03*
%TO.P,OLED1,5,3Vo*%
%TO.N,N/C*%
X158977000Y-74676000D03*
%TO.P,OLED1,6,Vin*%
%TO.N,+3V3*%
X161517000Y-74676000D03*
%TD*%
D11*
%TO.P,SW4,1,S*%
%TO.N,Net-(SW4-Pad1)*%
X205687600Y-101650800D03*
%TO.P,SW4,2,S1*%
%TO.N,Net-(SW4-Pad2)*%
X218184400Y-101650800D03*
%TO.P,SW4,3,P*%
%TO.N,GND*%
X205687600Y-106629200D03*
%TO.P,SW4,4,P1*%
%TO.N,Net-(SW4-Pad4)*%
X218184400Y-106629200D03*
%TD*%
%TO.P,SW1,1,S*%
%TO.N,Net-(SW1-Pad1)*%
X205941600Y-71170800D03*
%TO.P,SW1,2,S1*%
%TO.N,Net-(SW1-Pad2)*%
X218438400Y-71170800D03*
%TO.P,SW1,3,P*%
%TO.N,GND*%
X205941600Y-76149200D03*
%TO.P,SW1,4,P1*%
%TO.N,Net-(SW1-Pad4)*%
X218438400Y-76149200D03*
%TD*%
D12*
%TO.P,U1,1,RST*%
%TO.N,+3V3*%
X79856000Y-64770000D03*
%TO.P,U1,2,3V*%
%TO.N,Net-(U1-Pad2)*%
X79856000Y-67310000D03*
%TO.P,U1,3,ARef*%
%TO.N,Net-(U1-Pad3)*%
X79856000Y-69850000D03*
%TO.P,U1,4,GND*%
%TO.N,GND*%
X79856000Y-72390000D03*
%TO.P,U1,5,A0*%
%TO.N,Net-(JOY1-Pad2)*%
X79856000Y-74930000D03*
%TO.P,U1,6,A1*%
%TO.N,Net-(JOY1-Pad5)*%
X79856000Y-77470000D03*
%TO.P,U1,7,A2*%
%TO.N,Net-(JOY1-Pad7)*%
X79856000Y-80010000D03*
%TO.P,U1,8,A3*%
%TO.N,Net-(JOY2-Pad2)*%
X79856000Y-82550000D03*
%TO.P,U1,9,A4*%
%TO.N,Net-(JOY2-Pad5)*%
X79856000Y-85090000D03*
%TO.P,U1,10,A5*%
%TO.N,Net-(JOY2-Pad7)*%
X79856000Y-87630000D03*
%TO.P,U1,11,SCK*%
%TO.N,Net-(U1-Pad11)*%
X79856000Y-90170000D03*
%TO.P,U1,12,MOSI*%
%TO.N,Net-(U1-Pad12)*%
X79856000Y-92710000D03*
%TO.P,U1,13,MISO*%
%TO.N,Net-(U1-Pad13)*%
X79856000Y-95250000D03*
%TO.P,U1,14,Rx*%
%TO.N,Net-(U1-Pad14)*%
X79856000Y-97790000D03*
%TO.P,U1,15,Tx*%
%TO.N,Net-(OLED1-Pad3)*%
X79856000Y-100330000D03*
%TO.P,U1,16,DFU*%
%TO.N,Net-(U1-Pad16)*%
X79856000Y-102870000D03*
%TO.P,U1,17,SDA*%
%TO.N,/SDA*%
X100176000Y-102870000D03*
%TO.P,U1,18,SCL*%
%TO.N,/SCL*%
X100176000Y-100330000D03*
%TO.P,U1,19,5*%
%TO.N,Net-(SW5-Pad1)*%
X100176000Y-97790000D03*
%TO.P,U1,20,6*%
%TO.N,Net-(SW6-Pad1)*%
X100176000Y-95250000D03*
%TO.P,U1,21,9*%
%TO.N,Net-(U1-Pad21)*%
X100176000Y-92710000D03*
%TO.P,U1,22,10*%
%TO.N,Net-(SW4-Pad1)*%
X100176000Y-90170000D03*
%TO.P,U1,23,11*%
%TO.N,Net-(SW3-Pad1)*%
X100176000Y-87630000D03*
%TO.P,U1,24,12*%
%TO.N,Net-(SW2-Pad1)*%
X100176000Y-85090000D03*
%TO.P,U1,25,13*%
%TO.N,Net-(SW1-Pad1)*%
X100176000Y-82550000D03*
%TO.P,U1,26,USB*%
%TO.N,Net-(U1-Pad26)*%
X100176000Y-80010000D03*
%TO.P,U1,27,En*%
%TO.N,Net-(U1-Pad27)*%
X100176000Y-77470000D03*
%TO.P,U1,28,BAT*%
%TO.N,Net-(U1-Pad28)*%
X100176000Y-74930000D03*
%TD*%
D15*
%TO.P,C2,1*%
%TO.N,GND*%
X119226000Y-97790000D03*
%TO.P,C2,2*%
%TO.N,+3V3*%
X119226000Y-100290000D03*
%TD*%
D17*
%TO.N,GND*%
X110436000Y-108390000D03*
X91386000Y-108390000D03*
X92656000Y-74100000D03*
D18*
%TO.N,+3V3*%
X115516000Y-112200000D03*
D17*
%TO.N,GND*%
X138376000Y-110930000D03*
X164946000Y-97790000D03*
X132180000Y-88900000D03*
X123136000Y-99500000D03*
X114400000Y-72830000D03*
X186790000Y-91440000D03*
X164946000Y-111760000D03*
X105356000Y-103310000D03*
X121766000Y-113470000D03*
X175106000Y-111760000D03*
X119226000Y-97790000D03*
X131926000Y-111760000D03*
D18*
%TO.N,/SDA*%
X86206000Y-102870000D03*
X102716000Y-102870000D03*
X102716000Y-74930000D03*
%TO.N,/SCL*%
X103986000Y-77470000D03*
X88746000Y-100330000D03*
X105256000Y-100330000D03*
D17*
%TO.N,+3V3*%
X161136000Y-106680000D03*
X119226000Y-63500000D03*
X95985000Y-113030000D03*
X156056000Y-99060000D03*
X119226000Y-106680000D03*
X153616000Y-77910000D03*
X115516000Y-112200000D03*
D18*
%TO.N,Net-(SW3-Pad1)*%
X109320000Y-87630000D03*
X109320000Y-85090000D03*
%TO.N,Net-(JOY1-Pad2)*%
X134720000Y-115570000D03*
X87730000Y-115570000D03*
X87730000Y-76200000D03*
%TO.N,Net-(JOY1-Pad5)*%
X83920000Y-77470000D03*
X85123400Y-110490000D03*
%TO.N,Net-(JOY1-Pad7)*%
X111860000Y-95250000D03*
X111860000Y-81280000D03*
X147420000Y-95250000D03*
%TO.N,Net-(JOY2-Pad2)*%
X83920000Y-119380000D03*
X83920000Y-82550000D03*
X177900000Y-116840000D03*
%TO.N,Net-(JOY2-Pad5)*%
X90270000Y-105850000D03*
X90270000Y-86360000D03*
%TO.N,Net-(JOY2-Pad7)*%
X190600000Y-93980000D03*
%TO.N,Net-(OLED1-Pad3)*%
X92656000Y-71120000D03*
X82396000Y-100330000D03*
%TO.N,Net-(SW1-Pad1)*%
X110590000Y-69850000D03*
X110590000Y-82550000D03*
%TO.N,Net-(SW4-Pad1)*%
X108050000Y-90170000D03*
X108050000Y-96520000D03*
%TO.N,Net-(SW5-Pad1)*%
X104240000Y-96520000D03*
X104240000Y-83820000D03*
%TO.N,Net-(SW6-Pad1)*%
X106780000Y-80010000D03*
X160120000Y-80010000D03*
X106780000Y-95250000D03*
%TD*%
D19*
%TO.N,GND*%
X114400000Y-72390000D02*
X114400000Y-103464000D01*
X114400000Y-104426000D02*
X114400000Y-103464000D01*
X110436000Y-108390000D02*
X114400000Y-104426000D01*
%TO.N,+3V3*%
X119226000Y-63500000D02*
X123136000Y-66480000D01*
X123136000Y-66480000D02*
X123136000Y-96960000D01*
X123136000Y-96960000D02*
X119226000Y-100290000D01*
%TO.N,GND*%
X90905000Y-108871000D02*
X91386000Y-108390000D01*
X90905000Y-113030000D02*
X90905000Y-108871000D01*
D20*
%TO.N,Net-(OLED1-Pad3)*%
X82396000Y-71660000D02*
X82396000Y-100330000D01*
X82396000Y-71660000D02*
X82936000Y-71120000D01*
X82936000Y-71120000D02*
X92656000Y-71120000D01*
D19*
%TO.N,GND*%
X156437000Y-74676000D02*
X156437000Y-67469000D01*
X156437000Y-67469000D02*
X157826000Y-66080000D01*
X157826000Y-66080000D02*
X176376000Y-66080000D01*
%TO.N,+3V3*%
X161517000Y-74676000D02*
X161517000Y-70009000D01*
X161517000Y-70009000D02*
X162946000Y-68580000D01*
X162946000Y-68580000D02*
X176376000Y-68580000D01*
%TO.N,GND*%
X121766000Y-113470000D02*
X121766000Y-100870000D01*
X121766000Y-100870000D02*
X123136000Y-99500000D01*
X109066000Y-66000000D02*
X112496000Y-66000000D01*
X112496000Y-66000000D02*
X114400000Y-67904000D01*
X114400000Y-67904000D02*
X114400000Y-72830000D01*
X92656000Y-74100000D02*
X100756000Y-66000000D01*
X100756000Y-66000000D02*
X109066000Y-66000000D01*
%TO.N,+3V3*%
X156056000Y-99060000D02*
X156056000Y-80350000D01*
X156056000Y-80350000D02*
X153616000Y-77910000D01*
X115516000Y-112200000D02*
X118056000Y-112200000D01*
X119226000Y-109760000D02*
X119226000Y-100290000D01*
X118056000Y-112200000D02*
X119226000Y-111030000D01*
X119226000Y-111030000D02*
X119226000Y-109760000D01*
D20*
X103986000Y-111760000D02*
X103986000Y-112100000D01*
%TO.N,Net-(JOY2-Pad5)*%
X90270000Y-105850000D02*
X90270000Y-86360000D01*
D19*
%TO.N,GND*%
X103986000Y-109260000D02*
X103986000Y-104680000D01*
X103986000Y-104680000D02*
X105356000Y-103310000D01*
X138376000Y-110136000D02*
X142467000Y-106045000D01*
X138376000Y-110930000D02*
X138376000Y-110136000D01*
X131926000Y-111760000D02*
X131926000Y-112100000D01*
X131926000Y-111760000D02*
X131926000Y-99060000D01*
X203896900Y-76200000D02*
X196950000Y-76200000D01*
X194410000Y-78740000D02*
X196950000Y-76200000D01*
X194410000Y-80010000D02*
X194410000Y-86560507D01*
X194410000Y-80010000D02*
X194410000Y-78740000D01*
X132180000Y-98806000D02*
X131926000Y-99060000D01*
X132180000Y-88900000D02*
X132180000Y-98806000D01*
X161136000Y-90017600D02*
X159967600Y-88849200D01*
X164946000Y-97790000D02*
X164946000Y-111760000D01*
X194410000Y-86560507D02*
X194410000Y-88950800D01*
X194410000Y-88950800D02*
X191971600Y-91389200D01*
X205941600Y-76403200D02*
X220927600Y-91389200D01*
X175106000Y-111760000D02*
X175106000Y-99060000D01*
X156437000Y-74676000D02*
X157325999Y-75564999D01*
X203947700Y-76149200D02*
X203896900Y-76200000D01*
X185647000Y-106045000D02*
X186790000Y-104902000D01*
X157325999Y-75564999D02*
X157325999Y-86207599D01*
X205941600Y-76149200D02*
X205941600Y-76403200D01*
X157325999Y-86207599D02*
X159967600Y-88849200D01*
X186790000Y-104902000D02*
X186790000Y-91440000D01*
X205941600Y-76149200D02*
X203947700Y-76149200D01*
X161136000Y-97830000D02*
X161136000Y-90017600D01*
D20*
%TO.N,/SDA*%
X102716000Y-74930000D02*
X102716000Y-102870000D01*
X85825000Y-103251000D02*
X86206000Y-102870000D01*
X85825000Y-113030000D02*
X85825000Y-103251000D01*
%TO.N,/SCL*%
X88365000Y-100711000D02*
X88746000Y-100330000D01*
X103986000Y-77470000D02*
X105256000Y-78740000D01*
X105256000Y-78740000D02*
X105256000Y-100330000D01*
X88365000Y-113030000D02*
X88365000Y-100711000D01*
D19*
%TO.N,+3V3*%
X119226000Y-100290000D02*
X119226000Y-106680000D01*
X161136000Y-100330000D02*
X161136000Y-106680000D01*
D20*
%TO.N,Net-(SW3-Pad1)*%
X109320000Y-85090000D02*
X109320000Y-87630000D01*
%TO.N,Net-(JOY1-Pad2)*%
X87174399Y-115014399D02*
X87174399Y-76755601D01*
X87174399Y-76755601D02*
X87730000Y-76200000D01*
X87730000Y-115570000D02*
X87174399Y-115014399D01*
X134466000Y-115316000D02*
X134418399Y-115268399D01*
X134466000Y-99060000D02*
X134466000Y-115316000D01*
X134418399Y-115268399D02*
X134720000Y-115570000D01*
%TO.N,Net-(JOY1-Pad5)*%
X85123400Y-78673400D02*
X83920000Y-77470000D01*
X85123400Y-110490000D02*
X85123400Y-78673400D01*
%TO.N,Net-(JOY1-Pad7)*%
X147420000Y-106680000D02*
X147420000Y-95250000D01*
X111860000Y-95250000D02*
X111860000Y-81280000D01*
%TO.N,Net-(JOY2-Pad2)*%
X84475601Y-112315601D02*
X84367601Y-112207601D01*
X84367601Y-82997601D02*
X83920000Y-82550000D01*
X177646000Y-99060000D02*
X177646000Y-116586000D01*
X84475601Y-118824399D02*
X84475601Y-112315601D01*
X84367601Y-112207601D02*
X84367601Y-82997601D01*
X83920000Y-119380000D02*
X84475601Y-118824399D01*
X177646000Y-116586000D02*
X177900000Y-116840000D01*
%TO.N,Net-(JOY2-Pad7)*%
X190147000Y-106045000D02*
X190147000Y-94433000D01*
X190147000Y-94433000D02*
X190600000Y-93980000D01*
%TO.N,Net-(SW1-Pad1)*%
X110590000Y-69850000D02*
X110590000Y-82550000D01*
%TO.N,Net-(SW4-Pad1)*%
X108050000Y-96520000D02*
X108050000Y-90170000D01*
%TO.N,Net-(SW5-Pad1)*%
X104240000Y-83820000D02*
X104240000Y-96520000D01*
%TO.N,Net-(SW6-Pad1)*%
X159967600Y-83870800D02*
X159967600Y-80162400D01*
X106780000Y-80010000D02*
X106780000Y-95250000D01*
X159967600Y-80162400D02*
X160120000Y-80010000D01*
%TD*%
M02*
