%TF.GenerationSoftware,KiCad,Pcbnew,(5.99.0-3294-g9c46e491e)*%
%TF.CreationDate,2020-11-09T01:34:01-05:00*%
%TF.ProjectId,Game_Controller,47616d65-5f43-46f6-9e74-726f6c6c6572,rev?*%
%TF.SameCoordinates,Original*%
%TF.FileFunction,Copper,L1,Top*%
%TF.FilePolarity,Positive*%
%FSLAX46Y46*%
G04 Gerber Fmt 4.6, Leading zero omitted, Abs format (unit mm)*
G04 Created by KiCad (PCBNEW (5.99.0-3294-g9c46e491e)) date 2020-11-09 01:34:01*
%MOMM*%
%LPD*%
G01*
G04 APERTURE LIST*
%TA.AperFunction,ComponentPad*%
%ADD10C,6.400000*%
%TD*%
%TA.AperFunction,ComponentPad*%
%ADD11O,3.581400X1.790700*%
%TD*%
%TA.AperFunction,ComponentPad*%
%ADD12C,1.778000*%
%TD*%
%TA.AperFunction,ComponentPad*%
%ADD13O,1.778000X3.556000*%
%TD*%
%TA.AperFunction,ComponentPad*%
%ADD14C,2.540000*%
%TD*%
%TA.AperFunction,ComponentPad*%
%ADD15C,1.600000*%
%TD*%
%TA.AperFunction,ComponentPad*%
%ADD16R,1.600000X1.600000*%
%TD*%
%TA.AperFunction,ViaPad*%
%ADD17C,2.032000*%
%TD*%
%TA.AperFunction,ViaPad*%
%ADD18C,0.800000*%
%TD*%
%TA.AperFunction,Conductor*%
%ADD19C,0.762000*%
%TD*%
%TA.AperFunction,Conductor*%
%ADD20C,0.203200*%
%TD*%
G04 APERTURE END LIST*
D10*
%TO.P,REF\u002A\u002A,3*%
%TO.N,N/C*%
X219556000Y-132520000D03*
%TD*%
%TO.P,REF\u002A\u002A,2*%
%TO.N,N/C*%
X219556000Y-53780000D03*
%TD*%
%TO.P,REF\u002A\u002A,4*%
%TO.N,N/C*%
X92656000Y-132520000D03*
%TD*%
%TO.P,REF\u002A\u002A,1*%
%TO.N,N/C*%
X92656000Y-53780000D03*
%TD*%
D11*
%TO.P,SW5,1,S*%
%TO.N,Net-(SW5-Pad1)*%
X139647600Y-83870800D03*
%TO.P,SW5,2,S1*%
%TO.N,Net-(SW5-Pad2)*%
X152144400Y-83870800D03*
%TO.P,SW5,3,P*%
%TO.N,GND*%
X139647600Y-88849200D03*
%TO.P,SW5,4,P1*%
%TO.N,Net-(SW5-Pad4)*%
X152144400Y-88849200D03*
%TD*%
D12*
%TO.P,U2,1,CS*%
%TO.N,N/C*%
X83285000Y-125730000D03*
%TO.P,U2,2,SDO*%
X85825000Y-125730000D03*
%TO.P,U2,3,A1*%
X88365000Y-125730000D03*
%TO.P,U2,4,A2*%
X90905000Y-125730000D03*
%TO.P,U2,5,A3*%
X93445000Y-125730000D03*
%TO.P,U2,6,I2*%
X95985000Y-125730000D03*
%TO.P,U2,7,Vin*%
%TO.N,+3V3*%
X95985000Y-113030000D03*
%TO.P,U2,8,3V*%
%TO.N,N/C*%
X93445000Y-113030000D03*
%TO.P,U2,9,GND*%
%TO.N,GND*%
X90905000Y-113030000D03*
%TO.P,U2,10,SCL*%
%TO.N,/SCL*%
X88365000Y-113030000D03*
%TO.P,U2,11,SDA*%
%TO.N,/SDA*%
X85825000Y-113030000D03*
%TO.P,U2,12,INT*%
%TO.N,Net-(U1-Pad14)*%
X83285000Y-113030000D03*
%TD*%
%TO.P,JOY1,1,XVdd*%
%TO.N,+3V3*%
X137006000Y-99060000D03*
%TO.P,JOY1,2,XOut*%
%TO.N,Net-(JOY1-Pad2)*%
X134466000Y-99060000D03*
%TO.P,JOY1,3,XGnd*%
%TO.N,GND*%
X131926000Y-99060000D03*
%TO.P,JOY1,4,YVdd*%
%TO.N,+3V3*%
X124306000Y-106680000D03*
%TO.P,JOY1,5,Yout*%
%TO.N,Net-(JOY1-Pad5)*%
X124306000Y-109220000D03*
%TO.P,JOY1,6,YGnd*%
%TO.N,GND*%
X124306000Y-111760000D03*
D13*
%TO.P,JOY1,7,Sel*%
%TO.N,Net-(JOY1-Pad7)*%
X146967000Y-106045000D03*
%TO.P,JOY1,8,SelGnd*%
%TO.N,GND*%
X142467000Y-106045000D03*
%TO.P,JOY1,9*%
%TO.N,N/C*%
X142467000Y-112395000D03*
%TO.P,JOY1,10*%
X146967000Y-112395000D03*
D14*
%TO.P,JOY1,MOUNT1*%
X141133500Y-101600000D03*
%TO.P,JOY1,MOUNT2*%
X127798500Y-101600000D03*
%TO.P,JOY1,MOUNT3*%
X127798500Y-116840000D03*
%TO.P,JOY1,MOUNT4*%
X141133500Y-116840000D03*
%TD*%
D15*
%TO.P,C3,1*%
%TO.N,+3V3*%
X161136000Y-100330000D03*
%TO.P,C3,2*%
%TO.N,GND*%
X161136000Y-97830000D03*
%TD*%
D11*
%TO.P,SW3,1,S*%
%TO.N,Net-(SW3-Pad1)*%
X220927600Y-86410800D03*
%TO.P,SW3,2,S1*%
%TO.N,Net-(SW3-Pad2)*%
X233424400Y-86410800D03*
%TO.P,SW3,3,P*%
%TO.N,GND*%
X220927600Y-91389200D03*
%TO.P,SW3,4,P1*%
%TO.N,Net-(SW3-Pad4)*%
X233424400Y-91389200D03*
%TD*%
%TO.P,SW2,1,S*%
%TO.N,Net-(SW2-Pad1)*%
X191971600Y-86410800D03*
%TO.P,SW2,2,S1*%
%TO.N,Net-(SW2-Pad2)*%
X204468400Y-86410800D03*
%TO.P,SW2,3,P*%
%TO.N,GND*%
X191971600Y-91389200D03*
%TO.P,SW2,4,P1*%
%TO.N,Net-(SW2-Pad4)*%
X204468400Y-91389200D03*
%TD*%
%TO.P,SW6,1,S*%
%TO.N,Net-(SW6-Pad1)*%
X159967600Y-83870800D03*
%TO.P,SW6,2,S1*%
%TO.N,Net-(SW6-Pad2)*%
X172464400Y-83870800D03*
%TO.P,SW6,3,P*%
%TO.N,GND*%
X159967600Y-88849200D03*
%TO.P,SW6,4,P1*%
%TO.N,Net-(SW6-Pad4)*%
X172464400Y-88849200D03*
%TD*%
D15*
%TO.P,C4,1*%
%TO.N,+3V3*%
X103986000Y-111760000D03*
%TO.P,C4,2*%
%TO.N,GND*%
X103986000Y-109260000D03*
%TD*%
%TO.P,C5,1*%
%TO.N,+3V3*%
X176376000Y-68580000D03*
%TO.P,C5,2*%
%TO.N,GND*%
X176376000Y-66080000D03*
%TD*%
D16*
%TO.P,C1,1*%
%TO.N,+3V3*%
X109066000Y-63500000D03*
D15*
%TO.P,C1,2*%
%TO.N,GND*%
X109066000Y-66000000D03*
%TD*%
D12*
%TO.P,JOY2,1,XVdd*%
%TO.N,+3V3*%
X180186000Y-99060000D03*
%TO.P,JOY2,2,XOut*%
%TO.N,Net-(JOY2-Pad2)*%
X177646000Y-99060000D03*
%TO.P,JOY2,3,XGnd*%
%TO.N,GND*%
X175106000Y-99060000D03*
%TO.P,JOY2,4,YVdd*%
%TO.N,+3V3*%
X167486000Y-106680000D03*
%TO.P,JOY2,5,Yout*%
%TO.N,Net-(JOY2-Pad5)*%
X167486000Y-109220000D03*
%TO.P,JOY2,6,YGnd*%
%TO.N,GND*%
X167486000Y-111760000D03*
D13*
%TO.P,JOY2,7,Sel*%
%TO.N,Net-(JOY2-Pad7)*%
X190147000Y-106045000D03*
%TO.P,JOY2,8,SelGnd*%
%TO.N,GND*%
X185647000Y-106045000D03*
%TO.P,JOY2,9*%
%TO.N,N/C*%
X185647000Y-112395000D03*
%TO.P,JOY2,10*%
X190147000Y-112395000D03*
D14*
%TO.P,JOY2,MOUNT1*%
X184313500Y-101600000D03*
%TO.P,JOY2,MOUNT2*%
X170978500Y-101600000D03*
%TO.P,JOY2,MOUNT3*%
X170978500Y-116840000D03*
%TO.P,JOY2,MOUNT4*%
X184313500Y-116840000D03*
%TD*%
D12*
%TO.P,OLED1,1,SDA*%
%TO.N,/SDA*%
X148817000Y-74676000D03*
%TO.P,OLED1,2,SCL*%
%TO.N,/SCL*%
X151357000Y-74676000D03*
%TO.P,OLED1,3,RST*%
%TO.N,Net-(OLED1-Pad3)*%
X153897000Y-74676000D03*
%TO.P,OLED1,4,GND*%
%TO.N,GND*%
X156437000Y-74676000D03*
%TO.P,OLED1,5,3Vo*%
%TO.N,N/C*%
X158977000Y-74676000D03*
%TO.P,OLED1,6,Vin*%
%TO.N,+3V3*%
X161517000Y-74676000D03*
%TD*%
D11*
%TO.P,SW4,1,S*%
%TO.N,Net-(SW4-Pad1)*%
X205687600Y-101650800D03*
%TO.P,SW4,2,S1*%
%TO.N,Net-(SW4-Pad2)*%
X218184400Y-101650800D03*
%TO.P,SW4,3,P*%
%TO.N,GND*%
X205687600Y-106629200D03*
%TO.P,SW4,4,P1*%
%TO.N,Net-(SW4-Pad4)*%
X218184400Y-106629200D03*
%TD*%
%TO.P,SW1,1,S*%
%TO.N,Net-(SW1-Pad1)*%
X205941600Y-71170800D03*
%TO.P,SW1,2,S1*%
%TO.N,Net-(SW1-Pad2)*%
X218438400Y-71170800D03*
%TO.P,SW1,3,P*%
%TO.N,GND*%
X205941600Y-76149200D03*
%TO.P,SW1,4,P1*%
%TO.N,Net-(SW1-Pad4)*%
X218438400Y-76149200D03*
%TD*%
D12*
%TO.P,U1,1,RST*%
%TO.N,+3V3*%
X79856000Y-64770000D03*
%TO.P,U1,2,3V*%
%TO.N,Net-(U1-Pad2)*%
X79856000Y-67310000D03*
%TO.P,U1,3,ARef*%
%TO.N,Net-(U1-Pad3)*%
X79856000Y-69850000D03*
%TO.P,U1,4,GND*%
%TO.N,GND*%
X79856000Y-72390000D03*
%TO.P,U1,5,A0*%
%TO.N,Net-(JOY1-Pad2)*%
X79856000Y-74930000D03*
%TO.P,U1,6,A1*%
%TO.N,Net-(JOY1-Pad5)*%
X79856000Y-77470000D03*
%TO.P,U1,7,A2*%
%TO.N,Net-(JOY1-Pad7)*%
X79856000Y-80010000D03*
%TO.P,U1,8,A3*%
%TO.N,Net-(JOY2-Pad2)*%
X79856000Y-82550000D03*
%TO.P,U1,9,A4*%
%TO.N,Net-(JOY2-Pad5)*%
X79856000Y-85090000D03*
%TO.P,U1,10,A5*%
%TO.N,Net-(JOY2-Pad7)*%
X79856000Y-87630000D03*
%TO.P,U1,11,SCK*%
%TO.N,Net-(U1-Pad11)*%
X79856000Y-90170000D03*
%TO.P,U1,12,MOSI*%
%TO.N,Net-(U1-Pad12)*%
X79856000Y-92710000D03*
%TO.P,U1,13,MISO*%
%TO.N,Net-(U1-Pad13)*%
X79856000Y-95250000D03*
%TO.P,U1,14,Rx*%
%TO.N,Net-(U1-Pad14)*%
X79856000Y-97790000D03*
%TO.P,U1,15,Tx*%
%TO.N,Net-(OLED1-Pad3)*%
X79856000Y-100330000D03*
%TO.P,U1,16,DFU*%
%TO.N,Net-(U1-Pad16)*%
X79856000Y-102870000D03*
%TO.P,U1,17,SDA*%
%TO.N,/SDA*%
X100176000Y-102870000D03*
%TO.P,U1,18,SCL*%
%TO.N,/SCL*%
X100176000Y-100330000D03*
%TO.P,U1,19,5*%
%TO.N,Net-(SW5-Pad1)*%
X100176000Y-97790000D03*
%TO.P,U1,20,6*%
%TO.N,Net-(SW6-Pad1)*%
X100176000Y-95250000D03*
%TO.P,U1,21,9*%
%TO.N,Net-(U1-Pad21)*%
X100176000Y-92710000D03*
%TO.P,U1,22,10*%
%TO.N,Net-(SW4-Pad1)*%
X100176000Y-90170000D03*
%TO.P,U1,23,11*%
%TO.N,Net-(SW3-Pad1)*%
X100176000Y-87630000D03*
%TO.P,U1,24,12*%
%TO.N,Net-(SW2-Pad1)*%
X100176000Y-85090000D03*
%TO.P,U1,25,13*%
%TO.N,Net-(SW1-Pad1)*%
X100176000Y-82550000D03*
%TO.P,U1,26,USB*%
%TO.N,Net-(U1-Pad26)*%
X100176000Y-80010000D03*
%TO.P,U1,27,En*%
%TO.N,Net-(U1-Pad27)*%
X100176000Y-77470000D03*
%TO.P,U1,28,BAT*%
%TO.N,Net-(U1-Pad28)*%
X100176000Y-74930000D03*
%TD*%
D15*
%TO.P,C2,1*%
%TO.N,GND*%
X119226000Y-97790000D03*
%TO.P,C2,2*%
%TO.N,+3V3*%
X119226000Y-100290000D03*
%TD*%
D17*
%TO.N,GND*%
X110436000Y-108390000D03*
X91386000Y-108390000D03*
X92656000Y-74100000D03*
D18*
%TO.N,+3V3*%
X115516000Y-112200000D03*
D17*
%TO.N,GND*%
X138376000Y-110930000D03*
X164946000Y-97790000D03*
X132180000Y-88900000D03*
X123136000Y-99500000D03*
X114400000Y-72830000D03*
X186790000Y-91440000D03*
X164946000Y-111760000D03*
X105356000Y-103310000D03*
X121766000Y-113470000D03*
X175106000Y-111760000D03*
X119226000Y-97790000D03*
X131926000Y-111760000D03*
D18*
%TO.N,/SDA*%
X86206000Y-102870000D03*
X102716000Y-102870000D03*
X102716000Y-74930000D03*
%TO.N,/SCL*%
X103986000Y-77470000D03*
X88746000Y-100330000D03*
X105256000Y-100330000D03*
D17*
%TO.N,+3V3*%
X161136000Y-106680000D03*
X119226000Y-63500000D03*
X95985000Y-113030000D03*
X156056000Y-99060000D03*
X119226000Y-106680000D03*
X153616000Y-77910000D03*
X115516000Y-112200000D03*
D18*
%TO.N,Net-(SW3-Pad1)*%
X109320000Y-87630000D03*
X109320000Y-85090000D03*
%TO.N,Net-(JOY1-Pad2)*%
X134720000Y-115570000D03*
X87730000Y-115570000D03*
X87730000Y-76200000D03*
%TO.N,Net-(JOY1-Pad5)*%
X83920000Y-77470000D03*
X85123400Y-110490000D03*
%TO.N,Net-(JOY1-Pad7)*%
X111860000Y-95250000D03*
X111860000Y-81280000D03*
X147420000Y-95250000D03*
%TO.N,Net-(JOY2-Pad2)*%
X83920000Y-119380000D03*
X83920000Y-82550000D03*
X177900000Y-116840000D03*
%TO.N,Net-(JOY2-Pad5)*%
X90270000Y-105850000D03*
X90270000Y-86360000D03*
%TO.N,Net-(JOY2-Pad7)*%
X190600000Y-93980000D03*
%TO.N,Net-(OLED1-Pad3)*%
X92656000Y-71120000D03*
X82396000Y-100330000D03*
%TO.N,Net-(SW1-Pad1)*%
X110590000Y-69850000D03*
X110590000Y-82550000D03*
%TO.N,Net-(SW4-Pad1)*%
X108050000Y-90170000D03*
X108050000Y-96520000D03*
%TO.N,Net-(SW5-Pad1)*%
X104240000Y-96520000D03*
X104240000Y-83820000D03*
%TO.N,Net-(SW6-Pad1)*%
X106780000Y-80010000D03*
X160120000Y-80010000D03*
X106780000Y-95250000D03*
%TD*%
D19*
%TO.N,GND*%
X109566000Y-109260000D02*
X110436000Y-108390000D01*
X103986000Y-109260000D02*
X109566000Y-109260000D01*
X142644501Y-92338501D02*
X143456000Y-93150000D01*
X139647600Y-88849200D02*
X139647600Y-89341600D01*
X139647600Y-89341600D02*
X142644501Y-92338501D01*
X143456000Y-93150000D02*
X155666800Y-93150000D01*
X155666800Y-93150000D02*
X159967600Y-88849200D01*
X91386000Y-108390000D02*
X103116000Y-108390000D01*
X103116000Y-108390000D02*
X103986000Y-109260000D01*
D20*
%TO.N,Net-(SW4-Pad1)*%
X205687600Y-98621600D02*
X204221000Y-97155000D01*
X203186001Y-96120001D02*
X204221000Y-97155000D01*
X204221000Y-97155000D02*
X203586000Y-96520000D01*
X108050000Y-96520000D02*
X108449999Y-96120001D01*
X108449999Y-96120001D02*
X203186001Y-96120001D01*
%TO.N,Net-(JOY2-Pad7)*%
X89921000Y-93345000D02*
X90556000Y-93980000D01*
X84206000Y-87630000D02*
X89921000Y-93345000D01*
X89921000Y-93345000D02*
X90635399Y-94059399D01*
X90635399Y-94059399D02*
X190520601Y-94059399D01*
X190520601Y-94059399D02*
X190600000Y-93980000D01*
D19*
%TO.N,GND*%
X185647000Y-106045000D02*
X189176000Y-102040000D01*
X189176000Y-102040000D02*
X200606000Y-102040000D01*
X200606000Y-102040000D02*
X205687600Y-106629200D01*
D20*
%TO.N,Net-(SW4-Pad1)*%
X205687600Y-101650800D02*
X205687600Y-98621600D01*
X205687600Y-101650800D02*
X205840000Y-101498400D01*
%TO.N,Net-(OLED1-Pad3)*%
X92656000Y-71120000D02*
X152786000Y-71120000D01*
%TO.N,/SCL*%
X151357000Y-74676000D02*
X148563000Y-77470000D01*
X148096000Y-77470000D02*
X103986000Y-77470000D01*
X148563000Y-77470000D02*
X148096000Y-77470000D01*
%TO.N,Net-(OLED1-Pad3)*%
X153897000Y-74676000D02*
X153897000Y-72231000D01*
X153897000Y-72231000D02*
X152786000Y-71120000D01*
D19*
%TO.N,+3V3*%
X161517000Y-74676000D02*
X158283000Y-77910000D01*
X158283000Y-77910000D02*
X153616000Y-77910000D01*
%TO.N,GND*%
X121766000Y-113470000D02*
X122596000Y-113470000D01*
X122596000Y-113470000D02*
X124306000Y-111760000D01*
D20*
%TO.N,Net-(JOY2-Pad7)*%
X79856000Y-87630000D02*
X84206000Y-87630000D01*
%TO.N,Net-(U1-Pad14)*%
X79856000Y-97790000D02*
X82056000Y-97790000D01*
X82056000Y-97790000D02*
X83285000Y-99019000D01*
X83285000Y-99019000D02*
X83285000Y-113030000D01*
D19*
%TO.N,GND*%
X90946000Y-72390000D02*
X92656000Y-74100000D01*
X79856000Y-72390000D02*
X90946000Y-72390000D01*
X183742000Y-107950000D02*
X179932000Y-111760000D01*
X179932000Y-111760000D02*
X175106000Y-111760000D01*
%TO.N,+3V3*%
X161136000Y-100330000D02*
X157326000Y-100330000D01*
X157326000Y-100330000D02*
X156056000Y-99060000D01*
X103986000Y-111760000D02*
X115076000Y-111760000D01*
X115076000Y-111760000D02*
X115516000Y-112200000D01*
D20*
%TO.N,Net-(JOY2-Pad5)*%
X123373910Y-108390000D02*
X116786000Y-108390000D01*
X124822045Y-107973955D02*
X124798090Y-107950000D01*
X124822045Y-107973955D02*
X123789955Y-107973955D01*
X126068090Y-109220000D02*
X124822045Y-107973955D01*
X114246000Y-105850000D02*
X90270000Y-105850000D01*
X123789955Y-107973955D02*
X123373910Y-108390000D01*
X116786000Y-108390000D02*
X114246000Y-105850000D01*
D19*
%TO.N,GND*%
X105356000Y-103310000D02*
X106626000Y-102040000D01*
X106626000Y-102040000D02*
X110876000Y-97790000D01*
X110876000Y-97790000D02*
X119226000Y-97790000D01*
X123136000Y-99500000D02*
X120936000Y-99500000D01*
X120936000Y-99500000D02*
X119226000Y-97790000D01*
X137546000Y-111760000D02*
X138376000Y-110930000D01*
X131926000Y-111760000D02*
X137546000Y-111760000D01*
X131926000Y-111760000D02*
X131926000Y-112100000D01*
D20*
%TO.N,Net-(SW2-Pad1)*%
X108100800Y-86410800D02*
X106780000Y-85090000D01*
X106780000Y-85090000D02*
X100176000Y-85090000D01*
%TO.N,Net-(SW3-Pad1)*%
X186170800Y-85709200D02*
X109939200Y-85709200D01*
X189330000Y-82550000D02*
X186170800Y-85709200D01*
D19*
%TO.N,GND*%
X103946000Y-109220000D02*
X103986000Y-109260000D01*
X104026000Y-109220000D02*
X103986000Y-109260000D01*
X167486000Y-111760000D02*
X175106000Y-111760000D01*
X186790000Y-91440000D02*
X191920800Y-91440000D01*
X185647000Y-106045000D02*
X183742000Y-107950000D01*
X164906000Y-97830000D02*
X164946000Y-97790000D01*
X191920800Y-91440000D02*
X191971600Y-91389200D01*
X132230800Y-88849200D02*
X132180000Y-88900000D01*
X164946000Y-111760000D02*
X167486000Y-111760000D01*
X176336000Y-66040000D02*
X176376000Y-66080000D01*
X124306000Y-111760000D02*
X131926000Y-111760000D01*
X139647600Y-88849200D02*
X132230800Y-88849200D01*
X161136000Y-97830000D02*
X164906000Y-97830000D01*
D20*
%TO.N,/SDA*%
X86206000Y-102870000D02*
X100176000Y-102870000D01*
X148817000Y-74676000D02*
X102970000Y-74676000D01*
X102716000Y-102870000D02*
X100176000Y-102870000D01*
X102970000Y-74676000D02*
X102716000Y-74930000D01*
%TO.N,/SCL*%
X105256000Y-100330000D02*
X100176000Y-100330000D01*
X88746000Y-100330000D02*
X100176000Y-100330000D01*
%TO.N,Net-(SW2-Pad1)*%
X191971600Y-86410800D02*
X108100800Y-86410800D01*
X108100800Y-86410800D02*
X108050000Y-86360000D01*
D19*
%TO.N,+3V3*%
X137006000Y-106680000D02*
X124306000Y-106680000D01*
X103986000Y-111760000D02*
X97255000Y-111760000D01*
X96366000Y-112649000D02*
X95985000Y-113030000D01*
X137006000Y-99060000D02*
X156056000Y-99060000D01*
X79856000Y-64770000D02*
X80744999Y-63881001D01*
X109066000Y-63500000D02*
X119226000Y-63500000D01*
X180186000Y-106680000D02*
X167486000Y-106680000D01*
X97255000Y-111760000D02*
X95985000Y-113030000D01*
X108684999Y-63881001D02*
X109066000Y-63500000D01*
X161136000Y-106680000D02*
X167486000Y-106680000D01*
X80744999Y-63881001D02*
X108684999Y-63881001D01*
X119226000Y-106680000D02*
X124306000Y-106680000D01*
X180186000Y-99060000D02*
X180186000Y-106680000D01*
X137006000Y-99060000D02*
X137006000Y-106680000D01*
D20*
%TO.N,Net-(SW3-Pad1)*%
X221029200Y-83769200D02*
X219810000Y-82550000D01*
X219810000Y-82550000D02*
X189330000Y-82550000D01*
X221029200Y-86410800D02*
X221029200Y-83769200D01*
X109939200Y-85709200D02*
X109320000Y-85090000D01*
X109320000Y-87630000D02*
X100176000Y-87630000D01*
X220927600Y-86410800D02*
X221029200Y-86410800D01*
%TO.N,Net-(JOY1-Pad2)*%
X81126000Y-76200000D02*
X79856000Y-74930000D01*
X134320001Y-115170001D02*
X88129999Y-115170001D01*
X88129999Y-115170001D02*
X87730000Y-115570000D01*
X87730000Y-76200000D02*
X81126000Y-76200000D01*
X134720000Y-115570000D02*
X134320001Y-115170001D01*
%TO.N,Net-(JOY1-Pad5)*%
X123036000Y-110490000D02*
X85123400Y-110490000D01*
X83920000Y-77470000D02*
X79856000Y-77470000D01*
X124306000Y-109220000D02*
X123036000Y-110490000D01*
%TO.N,Net-(JOY1-Pad7)*%
X111860000Y-81280000D02*
X81126000Y-81280000D01*
X146967000Y-106045000D02*
X146967000Y-106227000D01*
X81126000Y-81280000D02*
X79856000Y-80010000D01*
X146967000Y-106227000D02*
X147420000Y-106680000D01*
X147420000Y-95250000D02*
X111860000Y-95250000D01*
%TO.N,Net-(JOY2-Pad2)*%
X177900000Y-116840000D02*
X176328399Y-118411601D01*
X176328399Y-118411601D02*
X84888399Y-118411601D01*
X83920000Y-82550000D02*
X79856000Y-82550000D01*
X84888399Y-118411601D02*
X83920000Y-119380000D01*
%TO.N,Net-(JOY2-Pad5)*%
X81126000Y-86360000D02*
X79856000Y-85090000D01*
X167486000Y-109220000D02*
X126068090Y-109220000D01*
X90270000Y-86360000D02*
X81126000Y-86360000D01*
%TO.N,Net-(OLED1-Pad3)*%
X82396000Y-100330000D02*
X79856000Y-100330000D01*
%TO.N,Net-(SW1-Pad1)*%
X205941600Y-71170800D02*
X163958430Y-71170800D01*
X110590000Y-82550000D02*
X100176000Y-82550000D01*
X162637630Y-69850000D02*
X110590000Y-69850000D01*
X163958430Y-71170800D02*
X162637630Y-69850000D01*
%TO.N,Net-(SW4-Pad1)*%
X108050000Y-90170000D02*
X100176000Y-90170000D01*
%TO.N,Net-(SW5-Pad1)*%
X139647600Y-83870800D02*
X104290800Y-83870800D01*
X104240000Y-96520000D02*
X101446000Y-96520000D01*
X104290800Y-83870800D02*
X104240000Y-83820000D01*
X101446000Y-96520000D02*
X100176000Y-97790000D01*
%TO.N,Net-(SW6-Pad1)*%
X160120000Y-80010000D02*
X106780000Y-80010000D01*
X106780000Y-95250000D02*
X100176000Y-95250000D01*
%TD*%
M02*
