%TF.GenerationSoftware,KiCad,Pcbnew,(5.99.0-3294-g9c46e491e)*%
%TF.CreationDate,2020-11-09T01:34:01-05:00*%
%TF.ProjectId,Game_Controller,47616d65-5f43-46f6-9e74-726f6c6c6572,rev?*%
%TF.SameCoordinates,Original*%
%TF.FileFunction,Soldermask,Bot*%
%TF.FilePolarity,Negative*%
%FSLAX46Y46*%
G04 Gerber Fmt 4.6, Leading zero omitted, Abs format (unit mm)*
G04 Created by KiCad (PCBNEW (5.99.0-3294-g9c46e491e)) date 2020-11-09 01:34:01*
%MOMM*%
%LPD*%
G01*
G04 APERTURE LIST*
%ADD10C,6.400000*%
%ADD11C,1.803400*%
%ADD12O,3.683000X1.892300*%
%ADD13C,1.879600*%
%ADD14C,1.981200*%
%ADD15O,1.981200X3.759200*%
%ADD16C,2.743200*%
%ADD17C,1.600000*%
%ADD18R,1.600000X1.600000*%
G04 APERTURE END LIST*
D10*
%TO.C,REF\u002A\u002A*%
X219556000Y-132520000D03*
%TD*%
%TO.C,REF\u002A\u002A*%
X219556000Y-53780000D03*
%TD*%
%TO.C,REF\u002A\u002A*%
X92656000Y-132520000D03*
%TD*%
%TO.C,REF\u002A\u002A*%
X92656000Y-53780000D03*
%TD*%
D11*
%TO.C,SW5*%
X145896000Y-81864200D03*
X145896000Y-90855800D03*
D12*
X139647600Y-83870800D03*
X152144400Y-83870800D03*
X139647600Y-88849200D03*
X152144400Y-88849200D03*
%TD*%
D13*
%TO.C,U2*%
X83285000Y-125730000D03*
X85825000Y-125730000D03*
X88365000Y-125730000D03*
X90905000Y-125730000D03*
X93445000Y-125730000D03*
X95985000Y-125730000D03*
X95985000Y-113030000D03*
X93445000Y-113030000D03*
X90905000Y-113030000D03*
X88365000Y-113030000D03*
X85825000Y-113030000D03*
X83285000Y-113030000D03*
%TD*%
D14*
%TO.C,JOY1*%
X137006000Y-99060000D03*
X134466000Y-99060000D03*
X131926000Y-99060000D03*
X124306000Y-106680000D03*
X124306000Y-109220000D03*
X124306000Y-111760000D03*
D15*
X146967000Y-106045000D03*
X142467000Y-106045000D03*
X142467000Y-112395000D03*
X146967000Y-112395000D03*
D16*
X141133500Y-101600000D03*
X127798500Y-101600000D03*
X127798500Y-116840000D03*
X141133500Y-116840000D03*
%TD*%
D17*
%TO.C,C3*%
X161136000Y-100330000D03*
X161136000Y-97830000D03*
%TD*%
D11*
%TO.C,SW3*%
X227176000Y-84404200D03*
X227176000Y-93395800D03*
D12*
X220927600Y-86410800D03*
X233424400Y-86410800D03*
X220927600Y-91389200D03*
X233424400Y-91389200D03*
%TD*%
D11*
%TO.C,SW2*%
X198220000Y-84404200D03*
X198220000Y-93395800D03*
D12*
X191971600Y-86410800D03*
X204468400Y-86410800D03*
X191971600Y-91389200D03*
X204468400Y-91389200D03*
%TD*%
D11*
%TO.C,SW6*%
X166216000Y-90855800D03*
X166216000Y-81864200D03*
D12*
X159967600Y-83870800D03*
X172464400Y-83870800D03*
X159967600Y-88849200D03*
X172464400Y-88849200D03*
%TD*%
D17*
%TO.C,C4*%
X103986000Y-111760000D03*
X103986000Y-109260000D03*
%TD*%
%TO.C,C5*%
X176376000Y-68580000D03*
X176376000Y-66080000D03*
%TD*%
D18*
%TO.C,C1*%
X109066000Y-63500000D03*
D17*
X109066000Y-66000000D03*
%TD*%
D14*
%TO.C,JOY2*%
X180186000Y-99060000D03*
X177646000Y-99060000D03*
X175106000Y-99060000D03*
X167486000Y-106680000D03*
X167486000Y-109220000D03*
X167486000Y-111760000D03*
D15*
X190147000Y-106045000D03*
X185647000Y-106045000D03*
X185647000Y-112395000D03*
X190147000Y-112395000D03*
D16*
X184313500Y-101600000D03*
X170978500Y-101600000D03*
X170978500Y-116840000D03*
X184313500Y-116840000D03*
%TD*%
D13*
%TO.C,OLED1*%
X148817000Y-74676000D03*
X151357000Y-74676000D03*
X153897000Y-74676000D03*
X156437000Y-74676000D03*
X158977000Y-74676000D03*
X161517000Y-74676000D03*
%TD*%
D11*
%TO.C,SW4*%
X211936000Y-108635800D03*
X211936000Y-99644200D03*
D12*
X205687600Y-101650800D03*
X218184400Y-101650800D03*
X205687600Y-106629200D03*
X218184400Y-106629200D03*
%TD*%
D11*
%TO.C,SW1*%
X212190000Y-78155800D03*
X212190000Y-69164200D03*
D12*
X205941600Y-71170800D03*
X218438400Y-71170800D03*
X205941600Y-76149200D03*
X218438400Y-76149200D03*
%TD*%
D13*
%TO.C,U1*%
X79856000Y-64770000D03*
X79856000Y-67310000D03*
X79856000Y-69850000D03*
X79856000Y-72390000D03*
X79856000Y-74930000D03*
X79856000Y-77470000D03*
X79856000Y-80010000D03*
X79856000Y-82550000D03*
X79856000Y-85090000D03*
X79856000Y-87630000D03*
X79856000Y-90170000D03*
X79856000Y-92710000D03*
X79856000Y-95250000D03*
X79856000Y-97790000D03*
X79856000Y-100330000D03*
X79856000Y-102870000D03*
X100176000Y-102870000D03*
X100176000Y-100330000D03*
X100176000Y-97790000D03*
X100176000Y-95250000D03*
X100176000Y-92710000D03*
X100176000Y-90170000D03*
X100176000Y-87630000D03*
X100176000Y-85090000D03*
X100176000Y-82550000D03*
X100176000Y-80010000D03*
X100176000Y-77470000D03*
X100176000Y-74930000D03*
%TD*%
D17*
%TO.C,C2*%
X119226000Y-97790000D03*
X119226000Y-100290000D03*
%TD*%
M02*
