M48
; DRILL file {KiCad (5.99.0-3294-g9c46e491e)} date Monday, November 09, 2020 at 01:34:05 AM
; FORMAT={-:-/ absolute / inch / decimal}
; #@! TF.CreationDate,2020-11-09T01:34:05-05:00
; #@! TF.GenerationSoftware,Kicad,Pcbnew,(5.99.0-3294-g9c46e491e)
FMAT,2
INCH
T1C0.0157
T2C0.0315
T3C0.0350
T4C0.0394
T5C0.0400
T6C0.0433
T7C0.0470
T8C0.0550
T9C0.1260
T10C0.1260
T11C0.0710
%
G90
G05
T1
X3.2439Y-3.95
X3.3039Y-3.05
X3.3039Y-3.25
X3.3039Y-4.7
X3.3513Y-4.35
X3.3939Y-4.05
X3.4539Y-3.0
X3.4539Y-4.55
X3.4939Y-3.95
X3.5539Y-3.4
X3.5539Y-4.1673
X3.6479Y-2.8
X4.0439Y-2.95
X4.0439Y-4.05
X4.0939Y-3.05
X4.1039Y-3.3
X4.1039Y-3.8
X4.1439Y-3.95
X4.2039Y-3.15
X4.2039Y-3.75
X4.2539Y-3.55
X4.2539Y-3.8
X4.3039Y-3.35
X4.3039Y-3.45
X4.3539Y-2.75
X4.3539Y-3.25
X4.4039Y-3.2
X4.4039Y-3.75
X4.5479Y-4.4173
X5.3039Y-4.55
X5.8039Y-3.75
X6.3039Y-3.15
X7.0039Y-4.6
X7.5039Y-3.7
T2
X6.3439Y-3.8516
X6.3439Y-3.95
X6.9439Y-2.6016
X6.9439Y-2.7
X4.0939Y-4.3016
X4.0939Y-4.4
X4.2939Y-2.5
X4.2939Y-2.5984
X4.6939Y-3.85
X4.6939Y-3.9484
T3
X4.8939Y-4.2
X4.8939Y-4.3
X4.8939Y-4.4
X5.1939Y-3.9
X5.2939Y-3.9
X5.3939Y-3.9
X6.5939Y-4.2
X6.5939Y-4.3
X6.5939Y-4.4
X6.8939Y-3.9
X6.9939Y-3.9
X7.0939Y-3.9
T4
X5.8589Y-2.94
X5.9589Y-2.94
X6.0589Y-2.94
X6.1589Y-2.94
X6.2589Y-2.94
X6.3589Y-2.94
X3.2789Y-4.45
X3.2789Y-4.95
X3.3789Y-4.45
X3.3789Y-4.95
X3.4789Y-4.45
X3.4789Y-4.95
X3.5789Y-4.45
X3.5789Y-4.95
X3.6789Y-4.45
X3.6789Y-4.95
X3.7789Y-4.45
X3.7789Y-4.95
X3.1439Y-2.55
X3.1439Y-2.65
X3.1439Y-2.75
X3.1439Y-2.85
X3.1439Y-2.95
X3.1439Y-3.05
X3.1439Y-3.15
X3.1439Y-3.25
X3.1439Y-3.35
X3.1439Y-3.45
X3.1439Y-3.55
X3.1439Y-3.65
X3.1439Y-3.75
X3.1439Y-3.85
X3.1439Y-3.95
X3.1439Y-4.05
X3.9439Y-2.95
X3.9439Y-3.05
X3.9439Y-3.15
X3.9439Y-3.25
X3.9439Y-3.35
X3.9439Y-3.45
X3.9439Y-3.55
X3.9439Y-3.65
X3.9439Y-3.75
X3.9439Y-3.85
X3.9439Y-3.95
X3.9439Y-4.05
T5
X3.5979Y-4.2673
X3.6479Y-2.9173
X3.7789Y-4.45
X4.1479Y-4.0673
X4.3479Y-4.2673
X4.5039Y-2.8673
X4.5479Y-4.4173
X4.6939Y-2.5
X4.6939Y-3.85
X4.6939Y-4.2
X4.7939Y-4.4673
X4.8479Y-3.9173
X5.1939Y-4.4
X5.2039Y-3.5
X5.4479Y-4.3673
X6.0479Y-3.0673
X6.1439Y-3.9
X6.3439Y-4.2
X6.4939Y-3.85
X6.4939Y-4.4
X6.8939Y-4.4
X7.3539Y-3.6
T6
X5.6089Y-4.175
X5.6089Y-4.425
X5.7861Y-4.175
X5.7861Y-4.425
X7.3089Y-4.175
X7.3089Y-4.425
X7.4861Y-4.175
X7.4861Y-4.425
T7
X8.1079Y-2.802
X8.1079Y-2.998
X8.5999Y-2.802
X8.5999Y-2.998
X7.5579Y-3.402
X7.5579Y-3.598
X8.0499Y-3.402
X8.0499Y-3.598
X8.6979Y-3.402
X8.6979Y-3.598
X9.1899Y-3.402
X9.1899Y-3.598
X8.0979Y-4.002
X8.0979Y-4.198
X8.5899Y-4.002
X8.5899Y-4.198
X6.2979Y-3.302
X6.2979Y-3.498
X6.7899Y-3.302
X6.7899Y-3.498
X5.4979Y-3.302
X5.4979Y-3.498
X5.9899Y-3.302
X5.9899Y-3.498
T8
X5.0314Y-4.0
X5.0314Y-4.6
X5.5564Y-4.0
X5.5564Y-4.6
X6.7314Y-4.0
X6.7314Y-4.6
X7.2564Y-4.0
X7.2564Y-4.6
T9
X3.6479Y-2.1173
T10
X3.6479Y-5.2173
X8.6439Y-2.1173
X8.6439Y-5.2173
T11
X5.7439Y-3.223
X5.7439Y-3.577
X8.3539Y-2.723
X8.3539Y-3.077
X7.8039Y-3.323
X7.8039Y-3.677
X8.9439Y-3.323
X8.9439Y-3.677
X8.3439Y-3.923
X8.3439Y-4.277
X6.5439Y-3.223
X6.5439Y-3.577
T0
M30
